<?xml version="1.0" encoding="UTF-8"?>
<svg width="24px" height="24px" viewBox="0 0 24 24" version="1.1" xmlns="http://www.w3.org/2000/svg">
    <g stroke="none" stroke-width="1" fill="none" fill-rule="evenodd">
        <path d="M12,2C6.48,2 2,6.48 2,12C2,13.96 2.58,15.75 3.54,17.29L2,22L6.89,20.48C8.37,21.35 10.12,21.87 12,21.87C17.52,21.87 22,17.39 22,11.87C22,6.35 17.52,2 12,2ZM12,20C10.27,20 8.67,19.5 7.29,18.65L6.75,18.32L4.03,19.17L4.88,16.54L4.53,15.97C3.6,14.54 3.06,12.84 3.06,11C3.06,7.13 7.13,4 12,4C16.87,4 20,7.13 20,11.87C20,16.61 16.87,20 12,20ZM16.5,13.5C16.25,13.37 15.12,12.82 14.87,12.75C14.62,12.67 14.37,12.67 14.12,12.92C13.87,13.17 13.37,13.67 13.12,13.92C12.87,14.17 12.62,14.17 12.37,14.04C12.12,13.91 11.37,13.66 10.5,12.87C9.87,12.24 9.37,11.5 9.12,11.25C8.87,11 9.12,10.75 9.37,10.5C9.62,10.25 9.87,10 10,9.75C10.12,9.5 10.12,9.25 10,9C9.87,8.75 9.37,7.62 9.12,7.12C8.87,6.62 8.62,6.62 8.37,6.62C8.12,6.62 7.87,6.62 7.62,6.62C7.37,6.62 7,6.87 6.75,7.12C6.5,7.37 5.87,7.92 5.87,9.05C5.87,10.17 6.75,11.3 6.87,11.55C7,11.8 9.37,15.3 12.87,16.8C13.62,17.12 14.25,17.37 14.75,17.55C15.5,17.87 16.25,17.8 16.87,17.67C17.5,17.55 18.37,17.05 18.62,16.5C18.87,15.95 18.87,15.45 18.75,15.32C18.62,15.2 18.37,15.12 16.5,13.5Z" fill="currentColor"/>
    </g>
</svg>
